{"title":"Nelly - Move That Body (Feat. T-Pain &amp; Akon) - 2010 - KonLive","uid":6135941,"size":36347162,"categoryP":"video","categoryS":"music_videos","magnet":"?xt=urn:btih:50c339469d86efa25db45c5fa8ea8d6b06b2fddf&amp;dn=Nelly+-+Move+That+Body+%28Feat.+T-Pain+%26+Akon%29+-+2010+-+KonLive&amp;tr=udp%3A%2F%2Ftracker.openbittorrent.com%3A80&amp;tr=udp%3A%2F%2Fopen.demonii.com%3A1337&amp;tr=udp%3A%2F%2Ftracker.coppersurfer.tk%3A6969&amp;tr=udp%3A%2F%2Fexodus.desync.com%3A6969","seeders":0,"leechers":1,"uploader":"KonLive","files":-1,"time":1296260678,"description":"Nelly - Move That Body (Feat. T-Pain &amp; Akon)\n\nA music video was shot on October 6. The video premiered on October 19 on VEVO. In the sizzling clip, the St. Louis rapper makes his way to an underground fight-style dance club, meeting up with Akon and T-Pain who hedge bets with T.I., Yo Gotti, Bangladesh and Jermaine Dupri on the sidelines as the ladies throw it down. The video was directed by Marc Klasfeld.\n\n   General Info :\n      Complete name : Nelly - Move That Body (Feat. T-Pain &amp; Akon) (2010).mp4\n      Format : MPEG-4\n      Format profile : Base Media / Version 2\n      Codec ID : mp42\n      File size : 34.7 MiB\n      Duration : 3mn 25s\n      Overall bit rate : 1416 Kbps\n\n   Video Info :\n      Format/Info : Advanced Video Codec\n      Format profile : &lt;a class=&quot;__cf_email__&quot; href=&quot;/cdn-cgi/l/email-protection&quot; data-cfemail=&quot;387559515678740d1609&quot;&gt;[email&amp;#160;protected]&lt;/a&gt;&lt;script cf-hash='f9e31' type=&quot;text/javascript&quot;&gt;\n/* &lt;![CDATA[ */!function(){try{var t=&quot;currentScript&quot;in document?document.currentScript:function(){for(var t=document.getElementsByTagName(&quot;script&quot;),e=t.length;e--;)if(t[e].getAttribute(&quot;cf-hash&quot;))return t[e]}();if(t&amp;&amp;t.previousSibling){var e,r,n,i,c=t.previousSibling,a=c.getAttribute(&quot;data-cfemail&quot;);if(a){for(e=&quot;&quot;,r=parseInt(a.substr(0,2),16),n=2;a.length-n;n+=2)i=parseInt(a.substr(n,2),16)^r,e+=String.fromCharCode(i);e=document.createTextNode(e),c.parentNode.replaceChild(e,c)}}}catch(u){}}();/* ]]&gt; */&lt;/script&gt;\n      Format settings, CABAC : Yes\n      Format settings, ReFrames : 1 frame\n      Codec ID : avc1\n      Codec ID/Info : Advanced Video Coding\n      Duration : 3mn 25s\n      Bit rate mode : Variable\n      Bit rate : 1222 Kbps\n      Width : 920 pixels\n      Height : 408 pixels\n      Display aspect ratio : 2.25:1\n      Frame rate mode : Constant\n      Frame rate : 23.976 fps\n      Resolution : 24 bits\n      Colorimetry : 4:2:0\n      Scan type : Progressive\n      Bits/(Pixel*Frame) : 0.136\n      Stream size : 29.9 MiB (86%)\n      Encoded date : UTC 2011-01-28 11:07:05\n      Tagged date : UTC 2011-01-28 11:07:05\n\n   Audio Info :\n      Format : AAC\n      Format/Info : Advanced Audio Codec\n      Format version : Version 4\n      Format profile : LC\n      Format settings, SBR : No\n      Codec ID : 40\n      Duration : 3mn 25s\n      Bit rate mode : Constant\n      Bit rate : 192 Kbps\n      Channel(s) : 2 channels\n      Channel positions : L R\n      Sampling rate : 44.1 KHz\n      Resolution : 16 bits\n      Stream size : 4.64 MiB (13%)","torrent":{"xt":"urn:btih:50c339469d86efa25db45c5fa8ea8d6b06b2fddf","amp;dn":"Nelly+-+Move+That+Body+%28Feat.+T-Pain+%26+Akon%29+-+2010+-+KonLive","amp;tr":["udp%3A%2F%2Ftracker.openbittorrent.com%3A80","udp%3A%2F%2Fopen.demonii.com%3A1337","udp%3A%2F%2Ftracker.coppersurfer.tk%3A6969","udp%3A%2F%2Fexodus.desync.com%3A6969"],"infoHash":"50c339469d86efa25db45c5fa8ea8d6b06b2fddf","infoHashBuffer":{"type":"Buffer","data":[80,195,57,70,157,134,239,162,93,180,92,95,168,234,141,107,6,178,253,223]},"announce":[],"urlList":[]}}